<svg class="main-svg" xmlns="http://www.w3.org/2000/svg" xmlns:xlink="http://www.w3.org/1999/xlink" width="2000" height="400" style="" viewBox="0 0 2000 400"><rect x="0" y="0" width="2000" height="400" style="fill: rgb(255, 255, 255); fill-opacity: 1;"/><defs id="defs-413c49"><g class="clips"><clipPath id="clip413c49xyplot" class="plotclip"><rect width="1764" height="334"/></clipPath><clipPath class="axesclip" id="clip413c49x"><rect x="53" y="0" width="1764" height="400"/></clipPath><clipPath class="axesclip" id="clip413c49y"><rect x="0" y="25" width="2000" height="334"/></clipPath><clipPath class="axesclip" id="clip413c49xy"><rect x="53" y="25" width="1764" height="334"/></clipPath></g><g class="gradients"/><g class="patterns"/></defs><g class="bglayer"><rect class="bg" x="53" y="25" width="1764" height="334" style="fill: rgb(229, 236, 246); fill-opacity: 1; stroke-width: 0;"/></g><g class="layer-below"><g class="imagelayer"/><g class="shapelayer"/></g><g class="cartesianlayer"><g class="subplot xy"><g class="layer-subplot"><g class="shapelayer"/><g class="imagelayer"/></g><g class="minor-gridlayer"><g class="x"/><g class="y"/></g><g class="gridlayer"><g class="x"><path class="xgrid crisp" transform="translate(299.06,0)" d="M0,25v334" style="stroke: rgb(255, 255, 255); stroke-opacity: 1; stroke-width: 1px;"/><path class="xgrid crisp" transform="translate(553.3199999999999,0)" d="M0,25v334" style="stroke: rgb(255, 255, 255); stroke-opacity: 1; stroke-width: 1px;"/><path class="xgrid crisp" transform="translate(807.59,0)" d="M0,25v334" style="stroke: rgb(255, 255, 255); stroke-opacity: 1; stroke-width: 1px;"/><path class="xgrid crisp" transform="translate(1053.65,0)" d="M0,25v334" style="stroke: rgb(255, 255, 255); stroke-opacity: 1; stroke-width: 1px;"/><path class="xgrid crisp" transform="translate(1307.91,0)" d="M0,25v334" style="stroke: rgb(255, 255, 255); stroke-opacity: 1; stroke-width: 1px;"/><path class="xgrid crisp" transform="translate(1553.97,0)" d="M0,25v334" style="stroke: rgb(255, 255, 255); stroke-opacity: 1; stroke-width: 1px;"/><path class="xgrid crisp" transform="translate(1808.23,0)" d="M0,25v334" style="stroke: rgb(255, 255, 255); stroke-opacity: 1; stroke-width: 1px;"/></g><g class="y"><path class="ygrid crisp" transform="translate(0,316.37)" d="M53,0h1764" style="stroke: rgb(255, 255, 255); stroke-opacity: 1; stroke-width: 1px;"/><path class="ygrid crisp" transform="translate(0,273.74)" d="M53,0h1764" style="stroke: rgb(255, 255, 255); stroke-opacity: 1; stroke-width: 1px;"/><path class="ygrid crisp" transform="translate(0,231.11)" d="M53,0h1764" style="stroke: rgb(255, 255, 255); stroke-opacity: 1; stroke-width: 1px;"/><path class="ygrid crisp" transform="translate(0,188.48)" d="M53,0h1764" style="stroke: rgb(255, 255, 255); stroke-opacity: 1; stroke-width: 1px;"/><path class="ygrid crisp" transform="translate(0,145.85)" d="M53,0h1764" style="stroke: rgb(255, 255, 255); stroke-opacity: 1; stroke-width: 1px;"/><path class="ygrid crisp" transform="translate(0,103.22)" d="M53,0h1764" style="stroke: rgb(255, 255, 255); stroke-opacity: 1; stroke-width: 1px;"/><path class="ygrid crisp" transform="translate(0,60.59)" d="M53,0h1764" style="stroke: rgb(255, 255, 255); stroke-opacity: 1; stroke-width: 1px;"/></g></g><g class="zerolinelayer"><path class="yzl zl crisp" transform="translate(0,359)" d="M53,0h1764" style="stroke: rgb(255, 255, 255); stroke-opacity: 1; stroke-width: 2px;"/></g><path class="xlines-below"/><path class="ylines-below"/><g class="overlines-below"/><g class="xaxislayer-below"/><g class="yaxislayer-below"/><g class="overaxes-below"/><g class="plot" transform="translate(53,25)" clip-path="url(#clip413c49xyplot)"><g class="scatterlayer mlayer"><g class="trace scatter trace72c148" style="stroke-miterlimit: 2; opacity: 1;"><g class="fills"/><g class="errorbars"/><g class="lines"><path class="js-line" d="M0,57.94L8.2,55.04L16.4,50.34L24.61,63.55L32.81,84.28L41.01,87.49L49.21,74.2L57.41,69.7L65.62,61.85L73.82,59.69L82.02,64.52L90.22,59.52L98.42,60.92L106.63,59.73L114.83,59.97L123.03,67.28L131.23,59.66L139.43,33.82L147.64,77L155.84,68.58L164.04,50.98L172.24,61.72L180.44,67.98L188.65,52.8L196.85,69.16L205.05,56.18L213.25,74.27L221.45,75.9L229.66,79.4L237.86,47.55L246.06,49.71L254.26,63.97L262.46,49.75L270.67,67.51L278.87,57.46L287.07,83.38L295.27,71.54L303.47,54.07L311.68,39.33L319.88,106.26L328.08,76.31L336.28,68.01L344.48,68.47L352.69,69.13L360.89,76.19L369.09,58.68L377.29,68.43L385.49,70.6L393.7,69.17L401.9,47.1L410.1,72.26L418.3,69.7L426.51,94.27L434.71,77.25L442.91,89.34L451.11,53.08L459.31,75.56L467.52,63.16L475.72,73.74L483.92,78L492.12,66.06L500.32,65.69L508.53,64.45L516.73,21.31L524.93,50.62L533.13,70.21L541.33,75.5L549.54,87.17L557.74,79.38L565.94,68.96L574.14,76.07L582.34,82.66L590.55,87.55L598.75,84.56L606.95,77.71L615.15,88.14L623.35,77.98L631.56,79.47L639.76,69.52L647.96,126.23L656.16,92.38L664.36,81.07L672.57,79.18L680.77,78.57L688.97,81.58L697.17,87.88L705.37,86.29L713.58,94.93L721.78,78.83L729.98,87.64L738.18,70.58L746.38,63.38L754.59,77.27L762.79,72.93L770.99,92.96L779.19,83.59L787.39,77.84L795.6,71.15L803.8,79.65L812,83.24L820.2,92.11L828.4,83.1L836.61,85.61L844.81,82.93L853.01,78.55L861.21,50.16L869.41,59.02L877.62,54.75L885.82,71.74L894.02,74.96L902.22,60.5L910.42,52.81L918.63,58.47L926.83,36.35L935.03,46.11L943.23,71.69L951.43,67.28L959.64,70.35L967.84,104.26L976.04,76.1L984.24,62.34L992.44,63.82L1000.65,73.86L1008.85,109.15L1017.05,34.28L1025.25,56.01L1033.45,48.98L1041.66,37.85L1049.86,56.9L1058.06,80.58L1066.26,59.98L1074.46,60.79L1082.67,56.68L1090.87,53.74L1099.07,69.53L1107.27,39.3L1115.47,70.05L1123.68,63.02L1131.88,58.87L1148.28,73.64L1156.48,74.06L1164.69,74.04L1172.89,92.18L1181.09,72.63L1189.29,71.95L1197.49,57.05L1205.7,64.54L1213.9,70.64L1222.1,74.62L1230.3,78.11L1238.51,58.02L1246.71,49.56L1254.91,71.34L1263.11,68.53L1271.31,63.19L1279.52,64.55L1287.72,75.95L1295.92,89.29L1304.12,63.15L1312.32,41.52L1320.53,80.99L1328.73,74.52L1336.93,81.44L1345.13,60.65L1353.33,85.2L1361.54,87.92L1369.74,96.14L1377.94,75.23L1386.14,60.16L1394.34,45.5L1402.55,63.57L1410.75,76.89L1418.95,70.75L1427.15,87.22L1435.35,75.8L1443.56,76.93L1451.76,79.15L1459.96,70.23L1468.16,66.37L1476.36,53.27L1484.57,66.56L1492.77,67.06L1500.97,70.91L1509.17,56.24L1517.37,84.24L1525.58,76.68L1533.78,93.8L1541.98,66.11L1550.18,83.75L1558.38,59.85L1566.59,74.32L1574.79,62.02L1582.99,57.67L1591.19,56.16L1599.39,50.29L1607.6,40.38L1615.8,44.33L1624,54.07L1632.2,53.49L1648.61,82.87L1656.81,68.26L1665.01,74.29L1673.21,65.36L1681.41,71.87L1689.62,53.58L1697.82,83.63L1706.02,81.91L1714.22,71.48L1722.42,66.92L1730.63,74.39L1738.83,74.96L1747.03,87.01L1755.23,89.52L1763.43,93.91" style="vector-effect: non-scaling-stroke; fill: none; stroke: rgb(22, 93, 177); stroke-opacity: 1; stroke-width: 2px; opacity: 1;"/></g><g class="points"/><g class="text"/></g><g class="trace scatter traceb4890f" style="stroke-miterlimit: 2; opacity: 1;"><g class="fills"/><g class="errorbars"/><g class="lines"><path class="js-line" d="M0,191.05L8.2,193.25L16.4,191.36L32.81,215.09L41.01,214.32L49.21,205.05L57.41,197.22L65.62,190.97L73.82,196.03L82.02,197.77L90.22,197.28L98.42,196.67L106.63,192.3L114.83,195.79L123.03,200.25L131.23,194.35L139.43,185.37L147.64,210.38L155.84,206.19L164.04,196.92L172.24,199.26L180.44,203.44L188.65,185.68L196.85,200.81L205.05,193.16L213.25,203.83L221.45,202.04L229.66,210.11L237.86,185.88L246.06,187.14L254.26,199.83L262.46,181.08L270.67,192.59L278.87,198.29L287.07,205.09L295.27,196.26L303.47,205.93L311.68,180.54L319.88,216.71L328.08,205.15L336.28,191.66L344.48,197.09L352.69,198.36L360.89,208.52L369.09,191.93L377.29,196.41L385.49,204.09L393.7,198.7L401.9,191.16L410.1,202.62L418.3,198.73L426.51,216.1L434.71,203.49L442.91,223.98L451.11,187.24L459.31,207.92L467.52,192.21L475.72,205.11L483.92,207.03L492.12,194.62L500.32,196.69L508.53,188.56L516.73,173.7L524.93,187.52L533.13,206.42L541.33,202.95L549.54,216.25L557.74,204.33L565.94,201.06L574.14,202.95L582.34,207.14L590.55,211.58L598.75,210.89L606.95,208.47L615.15,222.86L623.35,208.15L631.56,210.79L639.76,199.32L647.96,233.37L656.16,217.95L664.36,211.35L672.57,209.46L680.77,201.75L688.97,202L697.17,205.87L705.37,201.37L713.58,216.16L721.78,212.03L729.98,212.73L738.18,205L746.38,195.5L754.59,203.19L762.79,201.43L770.99,219.94L779.19,215.45L787.39,204.56L795.6,205.89L803.8,204.87L812,217.12L820.2,212.57L828.4,206.7L836.61,203.43L844.81,210.47L853.01,207.2L861.21,185.69L869.41,193.51L877.62,195.73L885.82,209.85L894.02,210.09L902.22,201.67L910.42,196.36L918.63,202.66L926.83,188.91L935.03,190.3L943.23,205.19L959.64,199.29L967.84,220.19L976.04,206.53L984.24,197L992.44,196.6L1000.65,208.28L1008.85,230.17L1017.05,183.78L1025.25,197.67L1033.45,180.99L1041.66,175.55L1049.86,191.41L1058.06,211.83L1066.26,196.65L1074.46,200.03L1082.67,198.71L1090.87,196.15L1099.07,198.56L1107.27,180.78L1115.47,208.56L1131.88,198.19L1140.08,197.98L1148.28,200.72L1156.48,205.31L1164.69,202.59L1172.89,217.35L1181.09,206.65L1189.29,199.42L1197.49,202.57L1205.7,200.71L1213.9,199.61L1222.1,201.24L1230.3,208.92L1238.51,200.47L1246.71,194.35L1254.91,199.19L1263.11,198.39L1271.31,191.99L1279.52,193.74L1287.72,209.8L1295.92,214.53L1304.12,199.09L1312.32,178.48L1320.53,207.31L1328.73,207.39L1336.93,214.95L1345.13,195.93L1353.33,210.48L1361.54,215.65L1369.74,213.57L1377.94,201.63L1386.14,192.7L1394.34,186.87L1402.55,192.6L1410.75,200.76L1418.95,202.96L1427.15,216.33L1435.35,206.16L1443.56,202.84L1451.76,206.26L1459.96,204.28L1468.16,208.55L1476.36,194.53L1484.57,201.25L1492.77,206L1500.97,203.84L1509.17,200L1517.37,211.48L1525.58,206.09L1533.78,218.31L1541.98,196.99L1550.18,212.67L1558.38,195.63L1566.59,205.14L1574.79,198.45L1582.99,192.81L1591.19,189.28L1599.39,191.85L1607.6,186.91L1615.8,186.16L1624,188.6L1632.2,192.38L1640.4,204.47L1648.61,211.77L1656.81,203.03L1665.01,196.18L1673.21,194.67L1681.41,201.18L1689.62,192L1697.82,211.63L1706.02,210.08L1714.22,199.94L1722.42,199.44L1730.63,202.19L1738.83,198.59L1747.03,213.67L1755.23,206.44L1763.43,217.12" style="vector-effect: non-scaling-stroke; fill: none; stroke: rgb(199, 217, 125); stroke-opacity: 1; stroke-width: 2px; opacity: 1;"/></g><g class="points"/><g class="text"/></g><g class="trace scatter trace684f20" style="stroke-miterlimit: 2; opacity: 1;"><g class="fills"/><g class="errorbars"/><g class="lines"><path class="js-line" d="M0,248.02L8.2,248.46L16.4,250.58L24.61,254.8L32.81,260.87L41.01,261.92L49.21,259.91L57.41,255.97L65.62,253.98L73.82,257.13L82.02,256.27L90.22,258.6L98.42,257.48L106.63,249.76L114.83,254.23L123.03,251.87L131.23,250.76L139.43,230.91L147.64,258.83L155.84,255.47L164.04,249.65L172.24,252.58L180.44,251.59L188.65,248.43L196.85,251.84L205.05,250.92L213.25,256.55L221.45,259.02L229.66,259.62L237.86,246.96L246.06,248.25L254.26,253.53L262.46,246.84L270.67,251.46L278.87,252.13L287.07,261.51L295.27,254.61L303.47,252.75L311.68,245.66L319.88,265.63L328.08,260.64L336.28,251.37L344.48,256L352.69,259L360.89,260.34L369.09,247.38L377.29,254.24L385.49,254.23L393.7,255.92L401.9,247.15L410.1,256.68L418.3,250.14L426.51,262.96L434.71,256.17L442.91,265.31L451.11,246.29L459.31,256.05L467.52,250.67L475.72,257.4L483.92,257.13L492.12,254.24L500.32,257.33L508.53,253.94L516.73,240.79L524.93,249.04L533.13,253.16L541.33,255.65L549.54,263.46L557.74,256.57L565.94,256.48L574.14,257.76L582.34,260.31L590.55,264.9L606.95,257.39L615.15,264.96L623.35,261.61L631.56,262.47L639.76,252.64L647.96,272.01L656.16,263.8L664.36,258.37L672.57,258.02L680.77,259.38L688.97,255.71L697.17,257.46L705.37,260.05L713.58,265.54L721.78,260.45L729.98,263.61L738.18,253.46L746.38,250.93L754.59,257.55L762.79,256.77L770.99,264.98L779.19,259.22L787.39,254.88L795.6,257.04L803.8,258.23L812,269.4L820.2,260.62L828.4,257.43L836.61,251.96L844.81,259.74L853.01,260.51L861.21,245.41L869.41,251.01L877.62,251.51L885.82,260.41L894.02,259.38L902.22,259.67L910.42,254.07L918.63,255.92L926.83,249.98L935.03,245.05L943.23,256.88L959.64,258.65L967.84,266.08L976.04,258.71L984.24,253.49L992.44,253.1L1000.65,255.57L1008.85,270.07L1017.05,238.03L1025.25,248.67L1033.45,242.98L1041.66,243.02L1049.86,248.08L1058.06,260.49L1066.26,250.7L1074.46,253.29L1082.67,248.14L1099.07,255.34L1107.27,240.24L1115.47,254.57L1123.68,254.17L1131.88,251.57L1140.08,252.16L1148.28,255.79L1156.48,253.63L1172.89,262.06L1181.09,259.77L1189.29,254.37L1197.49,254.1L1205.7,259.36L1213.9,255.42L1222.1,255.53L1230.3,257.94L1238.51,251.64L1246.71,242.92L1254.91,253.93L1263.11,253.13L1271.31,253.17L1279.52,250.67L1287.72,255.96L1295.92,260.26L1304.12,248.37L1312.32,238.18L1320.53,256.6L1328.73,255.27L1336.93,259.74L1345.13,247.76L1353.33,258.87L1361.54,262.36L1369.74,263.1L1377.94,255.17L1386.14,251.4L1394.34,242.95L1402.55,250.94L1410.75,253.95L1418.95,252.14L1427.15,261.37L1435.35,258L1443.56,257.52L1451.76,256.48L1459.96,253.74L1468.16,253.76L1476.36,247.97L1484.57,250.49L1492.77,254.47L1500.97,257.05L1509.17,251.13L1517.37,259.13L1525.58,258.23L1533.78,263.98L1541.98,249.79L1550.18,261.26L1558.38,245.31L1566.59,256.12L1574.79,248.96L1582.99,244.41L1591.19,242.73L1599.39,240.7L1607.6,239.57L1615.8,241.9L1624,238.4L1640.4,250.23L1648.61,259.61L1656.81,253.65L1665.01,250.85L1673.21,249.53L1681.41,252.29L1689.62,247.04L1697.82,259.84L1706.02,259.84L1714.22,252.64L1722.42,250.21L1730.63,251.41L1738.83,251.69L1747.03,259L1755.23,257.14L1763.43,259.08" style="vector-effect: non-scaling-stroke; fill: none; stroke: rgb(247, 129, 30); stroke-opacity: 1; stroke-width: 2px; opacity: 1;"/></g><g class="points"/><g class="text"/></g></g></g><g class="overplot"/><path class="xlines-above crisp" d="M0,0" style="fill: none;"/><path class="ylines-above crisp" d="M0,0" style="fill: none;"/><g class="overlines-above"/><g class="xaxislayer-above"><g class="xtick"><text text-anchor="middle" x="0" y="372" transform="translate(53,0)" style="font-family: 'Open Sans', verdana, arial, sans-serif; font-size: 12px; fill: rgb(42, 63, 95); fill-opacity: 1; white-space: pre; opacity: 1;">Jun 2022</text></g><g class="xtick"><text text-anchor="middle" x="0" y="372" style="font-family: 'Open Sans', verdana, arial, sans-serif; font-size: 12px; fill: rgb(42, 63, 95); fill-opacity: 1; white-space: pre; opacity: 1;" transform="translate(299.06,0)">Jul 2022</text></g><g class="xtick"><text text-anchor="middle" x="0" y="372" style="font-family: 'Open Sans', verdana, arial, sans-serif; font-size: 12px; fill: rgb(42, 63, 95); fill-opacity: 1; white-space: pre; opacity: 1;" transform="translate(553.3199999999999,0)">Aug 2022</text></g><g class="xtick"><text text-anchor="middle" x="0" y="372" style="font-family: 'Open Sans', verdana, arial, sans-serif; font-size: 12px; fill: rgb(42, 63, 95); fill-opacity: 1; white-space: pre; opacity: 1;" transform="translate(807.59,0)">Sep 2022</text></g><g class="xtick"><text text-anchor="middle" x="0" y="372" style="font-family: 'Open Sans', verdana, arial, sans-serif; font-size: 12px; fill: rgb(42, 63, 95); fill-opacity: 1; white-space: pre; opacity: 1;" transform="translate(1053.65,0)">Oct 2022</text></g><g class="xtick"><text text-anchor="middle" x="0" y="372" style="font-family: 'Open Sans', verdana, arial, sans-serif; font-size: 12px; fill: rgb(42, 63, 95); fill-opacity: 1; white-space: pre; opacity: 1;" transform="translate(1307.91,0)">Nov 2022</text></g><g class="xtick"><text text-anchor="middle" x="0" y="372" style="font-family: 'Open Sans', verdana, arial, sans-serif; font-size: 12px; fill: rgb(42, 63, 95); fill-opacity: 1; white-space: pre; opacity: 1;" transform="translate(1553.97,0)">Dec 2022</text></g><g class="xtick"><text text-anchor="middle" x="0" y="372" style="font-family: 'Open Sans', verdana, arial, sans-serif; font-size: 12px; fill: rgb(42, 63, 95); fill-opacity: 1; white-space: pre; opacity: 1;" transform="translate(1808.23,0)">Jan 2023</text></g></g><g class="yaxislayer-above"><g class="ytick"><text text-anchor="end" x="52" y="4.199999999999999" transform="translate(0,359)" style="font-family: 'Open Sans', verdana, arial, sans-serif; font-size: 12px; fill: rgb(42, 63, 95); fill-opacity: 1; white-space: pre; opacity: 1;">0</text></g><g class="ytick"><text text-anchor="end" x="52" y="4.199999999999999" style="font-family: 'Open Sans', verdana, arial, sans-serif; font-size: 12px; fill: rgb(42, 63, 95); fill-opacity: 1; white-space: pre; opacity: 1;" transform="translate(0,316.37)">0.02</text></g><g class="ytick"><text text-anchor="end" x="52" y="4.199999999999999" style="font-family: 'Open Sans', verdana, arial, sans-serif; font-size: 12px; fill: rgb(42, 63, 95); fill-opacity: 1; white-space: pre; opacity: 1;" transform="translate(0,273.74)">0.04</text></g><g class="ytick"><text text-anchor="end" x="52" y="4.199999999999999" style="font-family: 'Open Sans', verdana, arial, sans-serif; font-size: 12px; fill: rgb(42, 63, 95); fill-opacity: 1; white-space: pre; opacity: 1;" transform="translate(0,231.11)">0.06</text></g><g class="ytick"><text text-anchor="end" x="52" y="4.199999999999999" style="font-family: 'Open Sans', verdana, arial, sans-serif; font-size: 12px; fill: rgb(42, 63, 95); fill-opacity: 1; white-space: pre; opacity: 1;" transform="translate(0,188.48)">0.08</text></g><g class="ytick"><text text-anchor="end" x="52" y="4.199999999999999" style="font-family: 'Open Sans', verdana, arial, sans-serif; font-size: 12px; fill: rgb(42, 63, 95); fill-opacity: 1; white-space: pre; opacity: 1;" transform="translate(0,145.85)">0.1</text></g><g class="ytick"><text text-anchor="end" x="52" y="4.199999999999999" style="font-family: 'Open Sans', verdana, arial, sans-serif; font-size: 12px; fill: rgb(42, 63, 95); fill-opacity: 1; white-space: pre; opacity: 1;" transform="translate(0,103.22)">0.12</text></g><g class="ytick"><text text-anchor="end" x="52" y="4.199999999999999" style="font-family: 'Open Sans', verdana, arial, sans-serif; font-size: 12px; fill: rgb(42, 63, 95); fill-opacity: 1; white-space: pre; opacity: 1;" transform="translate(0,60.59)">0.14</text></g></g><g class="overaxes-above"/></g></g><g class="polarlayer"/><g class="smithlayer"/><g class="ternarylayer"/><g class="geolayer"/><g class="funnelarealayer"/><g class="pielayer"/><g class="iciclelayer"/><g class="treemaplayer"/><g class="sunburstlayer"/><g class="glimages"/><defs id="topdefs-413c49"><g class="clips"/><clipPath id="legend413c49"><rect width="148" height="117" x="0" y="0"/></clipPath></defs><g class="layer-above"><g class="imagelayer"/><g class="shapelayer"><path data-index="0" fill-rule="evenodd" d="M1070.05,359L1070.05,25" clip-path="url(#clip413c49x)" style="opacity: 1; stroke: rgb(0, 0, 0); stroke-opacity: 1; fill: rgb(0, 0, 0); fill-opacity: 0; stroke-width: 3px;"/><path data-index="1" fill-rule="evenodd" d="M1266.9,359L1266.9,25" clip-path="url(#clip413c49x)" style="opacity: 1; stroke: rgb(0, 0, 0); stroke-opacity: 1; fill: rgb(0, 0, 0); fill-opacity: 0; stroke-width: 3px;"/><path data-index="2" fill-rule="evenodd" d="M1677,359L1677,25" clip-path="url(#clip413c49x)" style="opacity: 1; stroke: rgb(0, 0, 0); stroke-opacity: 1; fill: rgb(0, 0, 0); fill-opacity: 0; stroke-width: 3px;"/></g></g><g class="infolayer"><g class="legend" pointer-events="all" transform="translate(1852,25)"><rect class="bg" shape-rendering="crispEdges" width="148" height="117" x="0" y="0" style="stroke: rgb(68, 68, 68); stroke-opacity: 1; fill: rgb(255, 255, 255); fill-opacity: 1; stroke-width: 0px;"/><g class="scrollbox" transform="" clip-path="url(#legend413c49)"><g class="groups"><g class="traces" transform="translate(0,22.75)" style="opacity: 1;"><text class="legendtext" text-anchor="start" x="40" y="9.75" style="font-family: 'Open Sans', verdana, arial, sans-serif; font-size: 25px; fill: rgb(42, 63, 95); fill-opacity: 1; white-space: pre;">toxicity</text><g class="layers" style="opacity: 1;"><g class="legendfill"/><g class="legendlines"><path class="js-line" d="M5,0h30" style="fill: none; stroke: rgb(22, 93, 177); stroke-opacity: 1; stroke-width: 2px;"/></g><g class="legendsymbols"><g class="legendpoints"/></g></g><rect class="legendtoggle" x="0" y="-17.75" width="142.40625" height="35.5" style="fill: rgb(0, 0, 0); fill-opacity: 0;"/></g><g class="traces" transform="translate(0,58.25)" style="opacity: 1;"><text class="legendtext" text-anchor="start" x="40" y="9.75" style="font-family: 'Open Sans', verdana, arial, sans-serif; font-size: 25px; fill: rgb(42, 63, 95); fill-opacity: 1; white-space: pre;">obscene</text><g class="layers" style="opacity: 1;"><g class="legendfill"/><g class="legendlines"><path class="js-line" d="M5,0h30" style="fill: none; stroke: rgb(199, 217, 125); stroke-opacity: 1; stroke-width: 2px;"/></g><g class="legendsymbols"><g class="legendpoints"/></g></g><rect class="legendtoggle" x="0" y="-17.75" width="142.40625" height="35.5" style="fill: rgb(0, 0, 0); fill-opacity: 0;"/></g><g class="traces" transform="translate(0,93.75)" style="opacity: 1;"><text class="legendtext" text-anchor="start" x="40" y="9.75" style="font-family: 'Open Sans', verdana, arial, sans-serif; font-size: 25px; fill: rgb(42, 63, 95); fill-opacity: 1; white-space: pre;">insult</text><g class="layers" style="opacity: 1;"><g class="legendfill"/><g class="legendlines"><path class="js-line" d="M5,0h30" style="fill: none; stroke: rgb(247, 129, 30); stroke-opacity: 1; stroke-width: 2px;"/></g><g class="legendsymbols"><g class="legendpoints"/></g></g><rect class="legendtoggle" x="0" y="-17.75" width="142.40625" height="35.5" style="fill: rgb(0, 0, 0); fill-opacity: 0;"/></g></g></g><rect class="scrollbar" rx="20" ry="3" width="0" height="0" x="0" y="0" style="fill: rgb(128, 139, 164); fill-opacity: 1;"/></g><g class="g-gtitle"><text class="gtitle" x="100" y="12.5" text-anchor="start" dy="0em" style="font-family: 'Open Sans', verdana, arial, sans-serif; font-size: 17px; fill: rgb(42, 63, 95); opacity: 1; font-weight: normal; white-space: pre;">Mean metrics for all hashtags/keywords from 01/06/2022 to 03/01/2023</text></g><g class="g-xtitle" transform="translate(0,-2.8000000000000114)"><text class="xtitle" x="935" y="399.8" text-anchor="middle" style="font-family: 'Open Sans', verdana, arial, sans-serif; font-size: 14px; fill: rgb(42, 63, 95); opacity: 1; font-weight: normal; white-space: pre;">Time</text></g><g class="g-ytitle" transform="translate(14.0654296875,0)"><text class="ytitle" transform="rotate(-90,-0.06562499999999716,192)" x="-0.06562499999999716" y="192" text-anchor="middle" style="font-family: 'Open Sans', verdana, arial, sans-serif; font-size: 14px; fill: rgb(42, 63, 95); opacity: 1; font-weight: normal; white-space: pre;">Value</text></g><g class="annotation" data-index="0" style="opacity: 1;"><g class="annotation-text-g" transform="rotate(0,1033.55,34.5)"><g class="cursor-pointer" transform="translate(997,25)"><rect class="bg" x="0.5" y="0.5" width="72" height="18" style="stroke-width: 1px; stroke: rgb(0, 0, 0); stroke-opacity: 0; fill: rgb(0, 0, 0); fill-opacity: 0;"/><text class="annotation-text" text-anchor="middle" x="36.421875" y="14" style="font-family: 'Open Sans', verdana, arial, sans-serif; font-size: 12px; fill: rgb(42, 63, 95); fill-opacity: 1; white-space: pre;">Deal closed</text></g></g></g><g class="annotation" data-index="1" style="opacity: 1;"><g class="annotation-text-g" transform="rotate(0,1361.4,34.50000000000001)"><g class="cursor-pointer" transform="translate(1267,25)"><rect class="bg" x="0.5" y="0.5" width="188" height="18" style="stroke-width: 1px; stroke: rgb(0, 0, 0); stroke-opacity: 0; fill: rgb(0, 0, 0); fill-opacity: 0;"/><text class="annotation-text" text-anchor="middle" x="94.390625" y="14" style="font-family: 'Open Sans', verdana, arial, sans-serif; font-size: 12px; fill: rgb(42, 63, 95); fill-opacity: 1; white-space: pre;">Half of Twitter employees fired</text></g></g></g><g class="annotation" data-index="2" style="opacity: 1;"><g class="annotation-text-g" transform="rotate(0,1747,34.5)"><g class="cursor-pointer" transform="translate(1677,25)"><rect class="bg" x="0.5" y="0.5" width="139" height="18" style="stroke-width: 1px; stroke: rgb(0, 0, 0); stroke-opacity: 0; fill: rgb(0, 0, 0); fill-opacity: 0;"/><text class="annotation-text" text-anchor="middle" x="69.984375" y="14" style="font-family: 'Open Sans', verdana, arial, sans-serif; font-size: 12px; fill: rgb(42, 63, 95); fill-opacity: 1; white-space: pre;">Musk bans a journalist</text></g></g></g></g></svg>