<svg class="main-svg" xmlns="http://www.w3.org/2000/svg" xmlns:xlink="http://www.w3.org/1999/xlink" width="2000" height="400" style="" viewBox="0 0 2000 400"><rect x="0" y="0" width="2000" height="400" style="fill: rgb(255, 255, 255); fill-opacity: 1;"/><defs id="defs-3ae62d"><g class="clips"><clipPath id="clip3ae62dxyplot" class="plotclip"><rect width="1764" height="334"/></clipPath><clipPath class="axesclip" id="clip3ae62dx"><rect x="53" y="0" width="1764" height="400"/></clipPath><clipPath class="axesclip" id="clip3ae62dy"><rect x="0" y="25" width="2000" height="334"/></clipPath><clipPath class="axesclip" id="clip3ae62dxy"><rect x="53" y="25" width="1764" height="334"/></clipPath></g><g class="gradients"/><g class="patterns"/></defs><g class="bglayer"><rect class="bg" x="53" y="25" width="1764" height="334" style="fill: rgb(229, 236, 246); fill-opacity: 1; stroke-width: 0;"/></g><g class="layer-below"><g class="imagelayer"/><g class="shapelayer"/></g><g class="cartesianlayer"><g class="subplot xy"><g class="layer-subplot"><g class="shapelayer"/><g class="imagelayer"/></g><g class="minor-gridlayer"><g class="x"/><g class="y"/></g><g class="gridlayer"><g class="x"><path class="xgrid crisp" transform="translate(299.06,0)" d="M0,25v334" style="stroke: rgb(255, 255, 255); stroke-opacity: 1; stroke-width: 1px;"/><path class="xgrid crisp" transform="translate(553.3199999999999,0)" d="M0,25v334" style="stroke: rgb(255, 255, 255); stroke-opacity: 1; stroke-width: 1px;"/><path class="xgrid crisp" transform="translate(807.59,0)" d="M0,25v334" style="stroke: rgb(255, 255, 255); stroke-opacity: 1; stroke-width: 1px;"/><path class="xgrid crisp" transform="translate(1053.65,0)" d="M0,25v334" style="stroke: rgb(255, 255, 255); stroke-opacity: 1; stroke-width: 1px;"/><path class="xgrid crisp" transform="translate(1307.91,0)" d="M0,25v334" style="stroke: rgb(255, 255, 255); stroke-opacity: 1; stroke-width: 1px;"/><path class="xgrid crisp" transform="translate(1553.97,0)" d="M0,25v334" style="stroke: rgb(255, 255, 255); stroke-opacity: 1; stroke-width: 1px;"/><path class="xgrid crisp" transform="translate(1808.23,0)" d="M0,25v334" style="stroke: rgb(255, 255, 255); stroke-opacity: 1; stroke-width: 1px;"/></g><g class="y"><path class="ygrid crisp" transform="translate(0,277.78999999999996)" d="M53,0h1764" style="stroke: rgb(255, 255, 255); stroke-opacity: 1; stroke-width: 1px;"/><path class="ygrid crisp" transform="translate(0,196.58)" d="M53,0h1764" style="stroke: rgb(255, 255, 255); stroke-opacity: 1; stroke-width: 1px;"/><path class="ygrid crisp" transform="translate(0,115.37)" d="M53,0h1764" style="stroke: rgb(255, 255, 255); stroke-opacity: 1; stroke-width: 1px;"/><path class="ygrid crisp" transform="translate(0,34.16)" d="M53,0h1764" style="stroke: rgb(255, 255, 255); stroke-opacity: 1; stroke-width: 1px;"/></g></g><g class="zerolinelayer"><path class="yzl zl crisp" transform="translate(0,359)" d="M53,0h1764" style="stroke: rgb(255, 255, 255); stroke-opacity: 1; stroke-width: 2px;"/></g><path class="xlines-below"/><path class="ylines-below"/><g class="overlines-below"/><g class="xaxislayer-below"/><g class="yaxislayer-below"/><g class="overaxes-below"/><g class="plot" transform="translate(53,25)" clip-path="url(#clip3ae62dxyplot)"><g class="scatterlayer mlayer"><g class="trace scatter trace410338" style="stroke-miterlimit: 2; opacity: 1;"><g class="fills"/><g class="errorbars"/><g class="lines"><path class="js-line" d="M0,118.74L8.2,155.7L16.4,143.2L24.61,175.79L32.81,178.42L41.01,169.3L49.21,183.71L57.41,177.86L65.62,191.04L73.82,165.5L82.02,196.36L90.22,194.63L98.42,213.21L106.63,182.28L114.83,163.66L123.03,174.26L131.23,146.79L139.43,162.8L147.64,176.48L155.84,165.67L164.04,174.78L172.24,179.73L180.44,171.74L188.65,164.11L196.85,173.03L205.05,179.49L213.25,218.3L221.45,266.5L229.66,230.8L237.86,186.49L246.06,186.15L254.26,172L262.46,177.05L270.67,193.31L278.87,229.75L287.07,199.25L295.27,215.18L303.47,209.52L311.68,165.2L319.88,201.62L328.08,230.77L336.28,199.66L344.48,206.14L352.69,192.59L360.89,212.34L369.09,189.47L377.29,240.32L385.49,181.81L393.7,173.37L401.9,132.55L410.1,178.54L418.3,217.51L426.51,240.25L434.71,150.38L442.91,143.78L451.11,167.46L459.31,176.23L467.52,205.52L475.72,196.46L483.92,175.89L492.12,214.72L500.32,193.37L508.53,229.05L516.73,209.43L524.93,215.67L533.13,191.45L541.33,223.3L549.54,196.29L557.74,235.42L565.94,186.42L574.14,180.3L582.34,179.46L590.55,185.62L598.75,195.37L606.95,221.47L615.15,229.23L623.35,192.61L631.56,199.92L639.76,197.76L647.96,213.58L656.16,190.36L664.36,211.98L672.57,227.67L680.77,219.03L688.97,261.12L697.17,255.21L705.37,220.88L713.58,198.19L721.78,212.73L729.98,215.54L738.18,190L746.38,178.67L754.59,175.88L762.79,206.3L770.99,222.11L779.19,218.24L787.39,205.73L795.6,164.32L803.8,195.8L812,205.66L820.2,205.77L828.4,207.28L836.61,201.74L844.81,224.93L853.01,244.62L861.21,208.32L869.41,199.66L877.62,207.93L885.82,203.26L894.02,211.82L902.22,192.77L910.42,201.18L918.63,160.02L926.83,130.48L935.03,198.93L943.23,216.69L951.43,195.59L959.64,194.74L967.84,219.13L976.04,215.56L984.24,220.99L992.44,214.57L1000.65,210.59L1008.85,235.11L1017.05,59.59L1025.25,124.12L1033.45,168.35L1041.66,127.84L1049.86,159.33L1058.06,171.25L1066.26,157.51L1074.46,144.25L1082.67,125.61L1090.87,132.13L1099.07,166.36L1107.27,77.02L1115.47,145.85L1123.68,173.43L1131.88,165.42L1140.08,146.03L1148.28,206.4L1156.48,168.19L1164.69,160.85L1172.89,159.77L1181.09,173.88L1189.29,194.36L1197.49,175.63L1205.7,176.54L1213.9,187.36L1222.1,161.52L1230.3,149.11L1238.51,119.9L1246.71,143.87L1254.91,159L1263.11,164.88L1271.31,158.45L1279.52,118.32L1287.72,126.92L1295.92,146.31L1304.12,69.93L1312.32,113.39L1320.53,144.82L1328.73,165.58L1336.93,146.05L1345.13,141.3L1353.33,158.65L1361.54,159.84L1369.74,145.39L1377.94,156.74L1386.14,158.06L1394.34,51.59L1402.55,143.08L1410.75,127.93L1418.95,139.31L1427.15,156.62L1435.35,143.85L1443.56,158.4L1451.76,145.61L1459.96,154.8L1468.16,147.96L1476.36,145.36L1484.57,140.72L1492.77,154.38L1500.97,164.62L1509.17,128.9L1517.37,166.42L1525.58,170.04L1533.78,175.85L1541.98,151.14L1550.18,159.63L1558.38,141.92L1566.59,171.03L1574.79,140.92L1582.99,118.45L1591.19,88.48L1599.39,107.92L1607.6,116.91L1615.8,98.68L1624,16.7L1632.2,112.37L1640.4,100.72L1648.61,159.64L1656.81,141.62L1665.01,158.53L1673.21,114.48L1681.41,92.14L1689.62,139.29L1697.82,156.71L1706.02,131.54L1714.22,133.08L1722.42,146.24L1730.63,137.84L1738.83,140.14L1747.03,164.37L1755.23,165.7L1763.43,161.49" style="vector-effect: non-scaling-stroke; fill: none; stroke: rgb(22, 93, 177); stroke-opacity: 1; stroke-width: 2px; opacity: 1;"/></g><g class="points"/><g class="text"/></g><g class="trace scatter traced4f59e" style="stroke-miterlimit: 2; opacity: 1;"><g class="fills"/><g class="errorbars"/><g class="lines"><path class="js-line" d="M0,221.85L8.2,246.63L16.4,238.6L24.61,265.23L32.81,268.14L41.01,256.59L49.21,266.61L57.41,258.45L65.62,270.71L73.82,258.92L82.02,277.03L90.22,277L98.42,290.14L106.63,264.39L114.83,258.44L123.03,265L131.23,248.81L139.43,261.96L147.64,267.66L155.84,257.31L164.04,263.91L172.24,252.49L180.44,262.97L188.65,256.54L196.85,257.85L205.05,261.5L213.25,285.16L221.45,308.73L229.66,292.02L237.86,271.32L246.06,265.76L254.26,256.38L262.46,253.68L270.67,245.55L278.87,287.26L287.07,267.89L295.27,277.77L303.47,274.77L311.68,246.12L319.88,263.62L328.08,297.99L336.28,268.45L344.48,271.85L352.69,271.34L360.89,282.45L369.09,271.84L377.29,293.16L385.49,267.44L393.7,264.9L401.9,247.84L410.1,277.8L418.3,291.5L426.51,292.05L434.71,242.87L442.91,248.86L451.11,256.52L459.31,255.56L467.52,277.04L475.72,276.36L483.92,266.24L492.12,293.49L500.32,279.38L508.53,289.1L516.73,272.02L524.93,285.55L533.13,278.85L541.33,289.58L549.54,268.85L557.74,302.67L565.94,277.78L574.14,272.7L582.34,271.19L590.55,263.69L598.75,276.51L606.95,295.79L615.15,298.83L623.35,273.83L631.56,281.5L639.76,270.01L647.96,283.31L656.16,260.84L664.36,287.59L672.57,298.87L680.77,286.73L688.97,308.99L697.17,305.97L705.37,282.83L713.58,276.08L721.78,285.66L729.98,288.16L738.18,270.2L746.38,257.94L754.59,261.27L762.79,280.7L770.99,294.17L779.19,287.2L787.39,276.1L795.6,262.22L803.8,274.69L812,279.68L820.2,277.78L828.4,278.13L836.61,282.8L853.01,302.76L861.21,291.12L869.41,276.66L877.62,288.7L885.82,296.25L894.02,293.62L902.22,286.44L910.42,293.67L918.63,302.62L926.83,287.53L935.03,301.94L943.23,292.71L951.43,287.71L959.64,277.63L976.04,287.72L984.24,284.87L1000.65,277.68L1008.85,294.74L1017.05,199.68L1025.25,236.97L1033.45,258.01L1041.66,237.2L1049.86,259.67L1058.06,259.56L1066.26,253.71L1074.46,253.89L1082.67,241.71L1090.87,247.68L1099.07,261.72L1107.27,197.16L1115.47,249.88L1123.68,258.86L1131.88,262.05L1140.08,237.31L1148.28,282.21L1156.48,266.93L1164.69,258.89L1172.89,262.52L1181.09,263.6L1189.29,274.1L1197.49,283.18L1205.7,263.79L1213.9,263.8L1222.1,243.96L1230.3,238.08L1238.51,219.04L1246.71,240.5L1254.91,245.81L1263.11,248.73L1271.31,244.71L1279.52,220.75L1287.72,228.1L1295.92,237.3L1304.12,192.76L1312.32,216.65L1320.53,237.04L1328.73,242.7L1336.93,234.93L1345.13,231.42L1353.33,247.17L1361.54,244.19L1369.74,231.98L1377.94,241.26L1386.14,241.8L1394.34,176L1402.55,239.04L1410.75,222.18L1418.95,238.21L1427.15,247.13L1435.35,237.11L1443.56,244.21L1451.76,239.04L1459.96,245.13L1468.16,246.11L1476.36,241.11L1484.57,240.39L1492.77,249.94L1500.97,252.86L1509.17,241.15L1517.37,252.93L1533.78,260.1L1541.98,246.97L1550.18,255.06L1558.38,236.85L1566.59,254.07L1574.79,234.69L1591.19,218.63L1599.39,228.4L1607.6,230.37L1615.8,218.01L1624,161.07L1632.2,221.92L1640.4,210.63L1648.61,251.52L1656.81,236.36L1665.01,248.32L1673.21,213.21L1681.41,184.71L1689.62,223.36L1697.82,232.92L1706.02,217.85L1714.22,229.01L1722.42,236.57L1730.63,226.41L1738.83,234.99L1747.03,246.92L1755.23,244.64L1763.43,251.01" style="vector-effect: non-scaling-stroke; fill: none; stroke: rgb(199, 217, 125); stroke-opacity: 1; stroke-width: 2px; opacity: 1;"/></g><g class="points"/><g class="text"/></g><g class="trace scatter trace9f32d3" style="stroke-miterlimit: 2; opacity: 1;"><g class="fills"/><g class="errorbars"/><g class="lines"><path class="js-line" d="M0,261.15L8.2,275.55L16.4,268.08L24.61,290.28L32.81,284.67L41.01,282.31L49.21,296.81L57.41,289.04L65.62,291.38L73.82,290.14L82.02,300.16L90.22,298.41L98.42,307.44L106.63,289.58L114.83,279.88L123.03,282.72L131.23,273.8L139.43,282.71L147.64,290.16L164.04,286.99L172.24,286.93L180.44,291.13L188.65,281.1L196.85,285.45L205.05,292.07L213.25,307.27L221.45,317.29L229.66,309.33L237.86,291.76L246.06,290.37L254.26,280.86L262.46,283.77L270.67,287.59L278.87,307.54L287.07,300.38L295.27,300.72L303.47,293.03L311.68,280.74L319.88,297.54L328.08,311.59L336.28,290.59L344.48,293.24L352.69,291.13L360.89,297.8L369.09,292.25L377.29,308.89L385.49,286.5L393.7,289.28L401.9,271.72L410.1,294.83L418.3,301.04L426.51,306.05L434.71,273.93L442.91,276.94L451.11,276.66L459.31,279.65L467.52,295.51L483.92,283.41L492.12,304.8L500.32,294.17L508.53,307.08L516.73,292.46L524.93,302.64L533.13,296.69L541.33,304.35L549.54,289.94L557.74,313.11L574.14,287.17L582.34,291.62L590.55,289.08L598.75,294.75L606.95,310.14L615.15,306.22L623.35,297.02L631.56,296.05L639.76,287.82L647.96,299.34L656.16,282.54L664.36,299.53L672.57,307.56L680.77,302.28L688.97,315.79L697.17,315.55L705.37,301.95L713.58,296.86L721.78,297.94L729.98,304.26L738.18,289.7L746.38,283.72L754.59,291.52L762.79,301.45L770.99,304.77L779.19,305.39L787.39,288.21L795.6,275.28L803.8,290.36L812,296.26L820.2,289.72L828.4,295.37L836.61,299.37L844.81,305.37L853.01,316.06L861.21,301.6L869.41,298.04L877.62,308.12L885.82,303.76L894.02,308.39L902.22,301.71L910.42,302.76L918.63,311.37L926.83,301.03L935.03,309.43L943.23,306.52L951.43,297.09L959.64,301.77L967.84,296.89L976.04,307.22L984.24,300.05L992.44,297.92L1000.65,294.62L1008.85,308.15L1017.05,215.65L1025.25,261.69L1033.45,285.94L1041.66,266.28L1049.86,281.53L1058.06,281.88L1066.26,275.95L1074.46,271.56L1082.67,263.3L1090.87,272.58L1099.07,286.06L1107.27,234.11L1115.47,275.69L1123.68,284.97L1131.88,284.2L1140.08,268.78L1148.28,299.97L1156.48,286.98L1164.69,283.15L1172.89,282.39L1181.09,285.68L1189.29,291.9L1197.49,299.36L1205.7,286.12L1213.9,282.65L1222.1,268.36L1230.3,264.74L1238.51,248.86L1246.71,264.52L1254.91,270.8L1263.11,276.84L1271.31,272.8L1279.52,252.6L1287.72,257.51L1295.92,266.16L1304.12,225.96L1320.53,264.77L1328.73,275.45L1336.93,267.73L1345.13,266.84L1353.33,277.3L1361.54,274.37L1369.74,267.28L1377.94,273.39L1386.14,274.06L1394.34,213.94L1402.55,268.31L1410.75,251.33L1418.95,267.94L1427.15,275.61L1435.35,268.07L1443.56,273.36L1451.76,266.93L1459.96,272.74L1468.16,274L1476.36,270.15L1484.57,271.39L1492.77,277.09L1500.97,281.08L1509.17,265.07L1517.37,282.49L1525.58,282.5L1533.78,287.7L1541.98,274.81L1550.18,281.58L1558.38,271.73L1566.59,282.33L1574.79,268.25L1582.99,255.31L1591.19,244.27L1599.39,254.42L1607.6,255.66L1615.8,243.76L1624,189.05L1632.2,248.31L1640.4,236.65L1648.61,271.56L1656.81,264.49L1665.01,275.23L1673.21,253.39L1681.41,239.42L1689.62,263.84L1697.82,267.77L1706.02,258.19L1722.42,269.29L1730.63,264.57L1738.83,268.33L1747.03,277.73L1755.23,276.34L1763.43,281.63" style="vector-effect: non-scaling-stroke; fill: none; stroke: rgb(247, 129, 30); stroke-opacity: 1; stroke-width: 2px; opacity: 1;"/></g><g class="points"/><g class="text"/></g></g></g><g class="overplot"/><path class="xlines-above crisp" d="M0,0" style="fill: none;"/><path class="ylines-above crisp" d="M0,0" style="fill: none;"/><g class="overlines-above"/><g class="xaxislayer-above"><g class="xtick"><text text-anchor="middle" x="0" y="372" transform="translate(53,0)" style="font-family: 'Open Sans', verdana, arial, sans-serif; font-size: 12px; fill: rgb(42, 63, 95); fill-opacity: 1; white-space: pre; opacity: 1;">Jun 2022</text></g><g class="xtick"><text text-anchor="middle" x="0" y="372" style="font-family: 'Open Sans', verdana, arial, sans-serif; font-size: 12px; fill: rgb(42, 63, 95); fill-opacity: 1; white-space: pre; opacity: 1;" transform="translate(299.06,0)">Jul 2022</text></g><g class="xtick"><text text-anchor="middle" x="0" y="372" style="font-family: 'Open Sans', verdana, arial, sans-serif; font-size: 12px; fill: rgb(42, 63, 95); fill-opacity: 1; white-space: pre; opacity: 1;" transform="translate(553.3199999999999,0)">Aug 2022</text></g><g class="xtick"><text text-anchor="middle" x="0" y="372" style="font-family: 'Open Sans', verdana, arial, sans-serif; font-size: 12px; fill: rgb(42, 63, 95); fill-opacity: 1; white-space: pre; opacity: 1;" transform="translate(807.59,0)">Sep 2022</text></g><g class="xtick"><text text-anchor="middle" x="0" y="372" style="font-family: 'Open Sans', verdana, arial, sans-serif; font-size: 12px; fill: rgb(42, 63, 95); fill-opacity: 1; white-space: pre; opacity: 1;" transform="translate(1053.65,0)">Oct 2022</text></g><g class="xtick"><text text-anchor="middle" x="0" y="372" style="font-family: 'Open Sans', verdana, arial, sans-serif; font-size: 12px; fill: rgb(42, 63, 95); fill-opacity: 1; white-space: pre; opacity: 1;" transform="translate(1307.91,0)">Nov 2022</text></g><g class="xtick"><text text-anchor="middle" x="0" y="372" style="font-family: 'Open Sans', verdana, arial, sans-serif; font-size: 12px; fill: rgb(42, 63, 95); fill-opacity: 1; white-space: pre; opacity: 1;" transform="translate(1553.97,0)">Dec 2022</text></g><g class="xtick"><text text-anchor="middle" x="0" y="372" style="font-family: 'Open Sans', verdana, arial, sans-serif; font-size: 12px; fill: rgb(42, 63, 95); fill-opacity: 1; white-space: pre; opacity: 1;" transform="translate(1808.23,0)">Jan 2023</text></g></g><g class="yaxislayer-above"><g class="ytick"><text text-anchor="end" x="52" y="4.199999999999999" transform="translate(0,359)" style="font-family: 'Open Sans', verdana, arial, sans-serif; font-size: 12px; fill: rgb(42, 63, 95); fill-opacity: 1; white-space: pre; opacity: 1;">0</text></g><g class="ytick"><text text-anchor="end" x="52" y="4.199999999999999" style="font-family: 'Open Sans', verdana, arial, sans-serif; font-size: 12px; fill: rgb(42, 63, 95); fill-opacity: 1; white-space: pre; opacity: 1;" transform="translate(0,277.78999999999996)">0.05</text></g><g class="ytick"><text text-anchor="end" x="52" y="4.199999999999999" style="font-family: 'Open Sans', verdana, arial, sans-serif; font-size: 12px; fill: rgb(42, 63, 95); fill-opacity: 1; white-space: pre; opacity: 1;" transform="translate(0,196.58)">0.1</text></g><g class="ytick"><text text-anchor="end" x="52" y="4.199999999999999" style="font-family: 'Open Sans', verdana, arial, sans-serif; font-size: 12px; fill: rgb(42, 63, 95); fill-opacity: 1; white-space: pre; opacity: 1;" transform="translate(0,115.37)">0.15</text></g><g class="ytick"><text text-anchor="end" x="52" y="4.199999999999999" style="font-family: 'Open Sans', verdana, arial, sans-serif; font-size: 12px; fill: rgb(42, 63, 95); fill-opacity: 1; white-space: pre; opacity: 1;" transform="translate(0,34.16)">0.2</text></g></g><g class="overaxes-above"/></g></g><g class="polarlayer"/><g class="smithlayer"/><g class="ternarylayer"/><g class="geolayer"/><g class="funnelarealayer"/><g class="pielayer"/><g class="iciclelayer"/><g class="treemaplayer"/><g class="sunburstlayer"/><g class="glimages"/><defs id="topdefs-3ae62d"><g class="clips"/><clipPath id="legend3ae62d"><rect width="148" height="117" x="0" y="0"/></clipPath></defs><g class="layer-above"><g class="imagelayer"/><g class="shapelayer"><path data-index="0" fill-rule="evenodd" d="M1070.05,359L1070.05,25" clip-path="url(#clip3ae62dx)" style="opacity: 1; stroke: rgb(0, 0, 0); stroke-opacity: 1; fill: rgb(0, 0, 0); fill-opacity: 0; stroke-width: 3px;"/><path data-index="1" fill-rule="evenodd" d="M1266.9,359L1266.9,25" clip-path="url(#clip3ae62dx)" style="opacity: 1; stroke: rgb(0, 0, 0); stroke-opacity: 1; fill: rgb(0, 0, 0); fill-opacity: 0; stroke-width: 3px;"/><path data-index="2" fill-rule="evenodd" d="M1677,359L1677,25" clip-path="url(#clip3ae62dx)" style="opacity: 1; stroke: rgb(0, 0, 0); stroke-opacity: 1; fill: rgb(0, 0, 0); fill-opacity: 0; stroke-width: 3px;"/></g></g><g class="infolayer"><g class="legend" pointer-events="all" transform="translate(1852,25)"><rect class="bg" shape-rendering="crispEdges" width="148" height="117" x="0" y="0" style="stroke: rgb(68, 68, 68); stroke-opacity: 1; fill: rgb(255, 255, 255); fill-opacity: 1; stroke-width: 0px;"/><g class="scrollbox" transform="" clip-path="url(#legend3ae62d)"><g class="groups"><g class="traces" transform="translate(0,22.75)" style="opacity: 1;"><text class="legendtext" text-anchor="start" x="40" y="9.75" style="font-family: 'Open Sans', verdana, arial, sans-serif; font-size: 25px; fill: rgb(42, 63, 95); fill-opacity: 1; white-space: pre;">toxicity</text><g class="layers" style="opacity: 1;"><g class="legendfill"/><g class="legendlines"><path class="js-line" d="M5,0h30" style="fill: none; stroke: rgb(22, 93, 177); stroke-opacity: 1; stroke-width: 2px;"/></g><g class="legendsymbols"><g class="legendpoints"/></g></g><rect class="legendtoggle" x="0" y="-17.75" width="142.40625" height="35.5" style="fill: rgb(0, 0, 0); fill-opacity: 0;"/></g><g class="traces" transform="translate(0,58.25)" style="opacity: 1;"><text class="legendtext" text-anchor="start" x="40" y="9.75" style="font-family: 'Open Sans', verdana, arial, sans-serif; font-size: 25px; fill: rgb(42, 63, 95); fill-opacity: 1; white-space: pre;">obscene</text><g class="layers" style="opacity: 1;"><g class="legendfill"/><g class="legendlines"><path class="js-line" d="M5,0h30" style="fill: none; stroke: rgb(199, 217, 125); stroke-opacity: 1; stroke-width: 2px;"/></g><g class="legendsymbols"><g class="legendpoints"/></g></g><rect class="legendtoggle" x="0" y="-17.75" width="142.40625" height="35.5" style="fill: rgb(0, 0, 0); fill-opacity: 0;"/></g><g class="traces" transform="translate(0,93.75)" style="opacity: 1;"><text class="legendtext" text-anchor="start" x="40" y="9.75" style="font-family: 'Open Sans', verdana, arial, sans-serif; font-size: 25px; fill: rgb(42, 63, 95); fill-opacity: 1; white-space: pre;">insult</text><g class="layers" style="opacity: 1;"><g class="legendfill"/><g class="legendlines"><path class="js-line" d="M5,0h30" style="fill: none; stroke: rgb(247, 129, 30); stroke-opacity: 1; stroke-width: 2px;"/></g><g class="legendsymbols"><g class="legendpoints"/></g></g><rect class="legendtoggle" x="0" y="-17.75" width="142.40625" height="35.5" style="fill: rgb(0, 0, 0); fill-opacity: 0;"/></g></g></g><rect class="scrollbar" rx="20" ry="3" width="0" height="0" x="0" y="0" style="fill: rgb(128, 139, 164); fill-opacity: 1;"/></g><g class="g-gtitle"><text class="gtitle" x="100" y="12.5" text-anchor="start" dy="0em" style="font-family: 'Open Sans', verdana, arial, sans-serif; font-size: 17px; fill: rgb(42, 63, 95); opacity: 1; font-weight: normal; white-space: pre;">Mean metrics for hashtag/keyword 'musk' from 01/06/2022 to 03/01/2023</text></g><g class="g-xtitle" transform="translate(0,-2.8000000000000114)"><text class="xtitle" x="935" y="399.8" text-anchor="middle" style="font-family: 'Open Sans', verdana, arial, sans-serif; font-size: 14px; fill: rgb(42, 63, 95); opacity: 1; font-weight: normal; white-space: pre;">Time</text></g><g class="g-ytitle" transform="translate(14.0654296875,0)"><text class="ytitle" transform="rotate(-90,-0.06562499999999716,192)" x="-0.06562499999999716" y="192" text-anchor="middle" style="font-family: 'Open Sans', verdana, arial, sans-serif; font-size: 14px; fill: rgb(42, 63, 95); opacity: 1; font-weight: normal; white-space: pre;">Value</text></g><g class="annotation" data-index="0" style="opacity: 1;"><g class="annotation-text-g" transform="rotate(0,1033.55,34.96)"><g class="cursor-pointer" transform="translate(997,25)"><rect class="bg" x="0.5" y="0.5" width="72" height="18" style="stroke-width: 1px; stroke: rgb(0, 0, 0); stroke-opacity: 0; fill: rgb(0, 0, 0); fill-opacity: 0;"/><text class="annotation-text" text-anchor="middle" x="36.421875" y="14" style="font-family: 'Open Sans', verdana, arial, sans-serif; font-size: 12px; fill: rgb(42, 63, 95); fill-opacity: 1; white-space: pre;">Deal closed</text></g></g></g><g class="annotation" data-index="1" style="opacity: 1;"><g class="annotation-text-g" transform="rotate(0,1361.4,34.96000000000001)"><g class="cursor-pointer" transform="translate(1267,25)"><rect class="bg" x="0.5" y="0.5" width="188" height="18" style="stroke-width: 1px; stroke: rgb(0, 0, 0); stroke-opacity: 0; fill: rgb(0, 0, 0); fill-opacity: 0;"/><text class="annotation-text" text-anchor="middle" x="94.390625" y="14" style="font-family: 'Open Sans', verdana, arial, sans-serif; font-size: 12px; fill: rgb(42, 63, 95); fill-opacity: 1; white-space: pre;">Half of Twitter employees fired</text></g></g></g><g class="annotation" data-index="2" style="opacity: 1;"><g class="annotation-text-g" transform="rotate(0,1747,34.96000000000001)"><g class="cursor-pointer" transform="translate(1677,25)"><rect class="bg" x="0.5" y="0.5" width="139" height="18" style="stroke-width: 1px; stroke: rgb(0, 0, 0); stroke-opacity: 0; fill: rgb(0, 0, 0); fill-opacity: 0;"/><text class="annotation-text" text-anchor="middle" x="69.984375" y="14" style="font-family: 'Open Sans', verdana, arial, sans-serif; font-size: 12px; fill: rgb(42, 63, 95); fill-opacity: 1; white-space: pre;">Musk bans a journalist</text></g></g></g></g></svg>